# xmcd
#
# Track frame offsets: 
#        150
#        18007
#        35090
#        76697
#        111160
#
# Disc length: 1780 seconds
#
# Revision: 4
# Processed by: cddbd v1.5.2PL0 Copyright (c) Steve Scherf et al.
# Submitted via: ExactAudioCopyFreeDBPlugin 1.0
#
DISCID=2d06f205
DTITLE=LeAnn Rimes - How Do I Live (Dance Mix)
DYEAR=1998
DGENRE=Yokel
TTITLE0=How Do I Live (Mr Mig Remix (Dance Radio Edit))
TTITLE1=How Do I Live (RH Factor Radio Edit)
TTITLE2=How Do I Live (RH Factor Club Vocal)
TTITLE3=How Do I Live (Mr Mig Remix (Club Mix))
TTITLE4=How Do I Live (Original Mix (Extended Version))
EXTD=YEAR: 1998
EXTT0=
EXTT1=
EXTT2=
EXTT3=
EXTT4=
PLAYORDER=
